<svg width="38" height="31" viewBox="0 0 38 31" fill="none" xmlns="http://www.w3.org/2000/svg">
<path d="M1.84548 13.9212L1.84547 13.9212L1.84452 13.924C0.974129 16.4974 0.535156 18.9874 0.535156 21.3915V28.5374C0.535156 29.3658 1.20673 30.0374 2.03516 30.0374H11.2323C12.0608 30.0374 12.7323 29.3658 12.7323 28.5374L12.7323 21.3116L12.7323 21.3074C12.7069 18.2764 13.1901 15.5199 14.1742 13.0314C15.0793 10.7775 16.1742 8.60537 17.4594 6.51488C17.8828 5.82611 17.7005 4.91283 17.0159 4.45665L11.9243 1.06382L11.9243 1.06382C11.3756 0.698142 10.6381 0.727562 10.1301 1.17732C8.42571 2.68636 6.87592 4.48814 5.47927 6.579L5.47858 6.58003C3.95188 8.87795 2.74065 11.3253 1.84548 13.9212ZM21.5572 13.9212L21.5562 13.924C20.6858 16.4974 20.2468 18.9874 20.2468 21.3915V28.5374C20.2468 29.3658 20.9184 30.0374 21.7468 30.0374H30.944C31.7724 30.0374 32.444 29.3658 32.444 28.5374L32.444 21.3116L32.444 21.3074C32.4185 18.2765 32.9017 15.5201 33.8858 13.0317C34.7909 10.7777 35.8859 8.60547 37.1711 6.51488C37.5945 5.82611 37.4122 4.91284 36.7276 4.45665L31.636 1.06382L31.636 1.06382C31.0872 0.698142 30.3498 0.727562 29.8418 1.17732L30.1732 1.55167L29.8418 1.17732C28.1374 2.68636 26.5876 4.48814 25.1909 6.579L25.1903 6.58004C23.6636 8.87795 22.4523 11.3253 21.5572 13.9212Z" fill="url(#paint0_linear_116_11863)" stroke="#CAFF33"/>
<defs>
<linearGradient id="paint0_linear_116_11863" x1="19.1528" y1="1.06677" x2="19.1528" y2="29.5374" gradientUnits="userSpaceOnUse">
<stop stop-color="#CAFF33"/>
<stop offset="1" stop-color="#191919"/>
</linearGradient>
</defs>
</svg>
