<svg width="20" height="20" viewBox="0 0 20 20" fill="none" xmlns="http://www.w3.org/2000/svg">
<path d="M6.2918 18.1247C13.8371 18.1247 17.9652 11.872 17.9652 6.45131C17.9652 6.27553 17.9613 6.09584 17.9535 5.92006C18.7566 5.33931 19.4496 4.61997 20 3.79584C19.2521 4.12859 18.458 4.34591 17.6449 4.44037C18.5011 3.92718 19.1421 3.12098 19.4492 2.17123C18.6438 2.64855 17.763 2.98527 16.8445 3.16693C16.2257 2.50939 15.4075 2.07402 14.5164 1.92813C13.6253 1.78224 12.711 1.93396 11.9148 2.35984C11.1186 2.78571 10.4848 3.46201 10.1115 4.28418C9.73825 5.10635 9.64619 6.0286 9.84961 6.90834C8.21874 6.8265 6.62328 6.40284 5.16665 5.66484C3.71002 4.92683 2.42474 3.89095 1.39414 2.62435C0.870333 3.52746 0.710047 4.59613 0.945859 5.61317C1.18167 6.6302 1.79589 7.5193 2.66367 8.09974C2.01219 8.07906 1.37498 7.90366 0.804688 7.58802V7.63881C0.804104 8.58655 1.13175 9.50524 1.73192 10.2387C2.3321 10.9722 3.16777 11.4752 4.09687 11.6622C3.49338 11.8274 2.85999 11.8514 2.2457 11.7326C2.50788 12.5476 3.01798 13.2605 3.70481 13.7717C4.39164 14.2829 5.22093 14.5669 6.07695 14.5841C4.62369 15.7257 2.82848 16.3449 0.980469 16.3419C0.652739 16.3414 0.325333 16.3213 0 16.2818C1.87738 17.4862 4.06128 18.1259 6.2918 18.1247Z" fill="#262626"/>
</svg>
